<?xml version="1.0" encoding="UTF-8" standalone="no"?>
<!-- Created with Inkscape (http://www.inkscape.org/) -->
<svg id="svg4069" xmlns:rdf="http://www.w3.org/1999/02/22-rdf-syntax-ns#" xmlns="http://www.w3.org/2000/svg" height="120mm" width="120mm" version="1.1" xmlns:cc="http://creativecommons.org/ns#" xmlns:dc="http://purl.org/dc/elements/1.1/">
 <g id="layer1" transform="translate(1545.3 -933.53)">
  <rect id="rect3436" style="fill-rule:evenodd;stroke:#000000;stroke-width:.98654px;fill:#000000" height="424.21" width="424.21" y="934.02" x="-1544.8"/>
  <rect id="rect3440" style="fill-rule:evenodd;stroke:#000000;stroke-width:.96779px;fill:#ffffff" height="416.15" width="416.15" y="938.05" x="-1540.8"/>
  <path id="path7837-3-8" style="stroke-width:0;fill:#000000" d="m-1345.4 1010c-0.08 0-0.1594 0-0.2406 0.012-2.9126 0.7152-4.7151 3.509-6.9301 5.3027-4.8406 4.2765-10.005 8.2192-14.426 12.943-3.6627 3.8288-7.1965 7.9229-10.001 12.444-1.2836-7.722-2.7154-15.42-4.3313-23.085-7.0176-1.7056-14.285-2.5372-21.551-2.5356-2.4222 0-4.8418 0.097-7.255 0.2797-7.2422 0.4838-14.357 1.8117-21.398 3.5072-3.4509 11.304-6.9003 22.609-10.35 33.913l-9.2311 0.096 1.4798-14.696h-9.5348l-1.4829 14.805-6.879 0.063 1.0738-12.621-8.4189 0.5655-1.3085 12.164-17.764 0.1865 2.2498 7.8535h14.648l-0.752 6.8038-12.768 0.4842 1.122 5.0382 11.033 0.1384-1.4979 13.896 9.5379-1.128 1.0708-12.654 6.5782 0.09-1.4829 14.796 9.5379-0.5385 1.4317-14.125 4.8667 0.06c-9.9019 32.452-19.805 64.904-29.708 97.355-2.5973 0.9144-5.4653 0.8982-7.9295 0.8066-1.0962 3.7191-2.0296 9.2281-3.1425 12.942 20.276-0.053 40.134-0.3471 60.41-0.5806-0.2887-5.2775-0.5774-10.559-0.8662-15.836-3.3435 0.1837-6.6847 0.3727-10.028 0.5565 1.7775-22.529 4.3861-48.027 11.746-69.475 8.2912-2.4417 17.103-2.5296 24.842-0.5714 5.8421 21.32 6.224 45.599 5.7901 67.716-3.3604 0.1846-6.7249 0.3718-10.085 0.5564l0.7279 13.21c19.058-0.034 38.112-0.182 57.167-0.4992-0.053-0.1135-0.1066-0.2265-0.1594-0.3399 4.164 3.6704 9.4799 5.9981 15.057 6.5511 10.484 1.1709 20.81-2.3432 30.064-6.9271 1.9267-0.9534 4.0866-0.8668 6.151-0.6647 9.5837 0.039 19.998-3.0463 25.913-10.943 2.199-3.0656 3.7405-6.4599 4.7795-10.025 2.0335 5.4539 5.5791 11.233 11.658 16.264 10.351 9.9522 41.558 15.97 59.998 1.5369 8.8913-6.9593 10.676-21.491 13.578-37.282 6.7222-36.634 6.384-69.698 6.8458-105.74l-26.289-4.9149c-0.2373 18.022-2.321 32.613-3.8681 54.358-0.7736 10.873-33.78 13.996-32.62-2.3129l3.8681-54.37-25.233-3.868-1.2302 22.673c-0.6737-4.3878-1.4506-8.7623-2.1717-13.141-1.7061-1.3027-3.6462 0.5477-4.8666 1.6513-1.9108 1.935-3.7589 4.0079-5.8804 5.6608-6.5036 6.2217-13.539 12.07-18.67 19.566-1.4827 2.074-2.8249 4.2294-4.0937 6.4427 4.6489 0.2777 9.2958 0.5687 13.944 0.8513-0.1822 3.4944-1.9617 6.6744-2.8364 10.031-0.4992 1.5182-0.9986 3.0357-1.498 4.5539-2.2786-4.9885-8.045-8.5796-13.586-7.0835-3.8322 0.5883-7.0982 3.0649-9.3966 6.0999-0.7475-5.0855-2.77-10.835-7.7692-13.093-4.3158-1.8444-9.3363 0.07-12.705 2.9447-3.8645 3.2391-6.2106 7.8583-7.8746 12.54-0.7583-2.4007-2.8904-4.8938-1.6453-7.4865 1.9417-8.2302 0.1446-16.91-3.1642-24.544 0.9639-12.267 0.4636-24.606-0.2557-36.873 0.1937-1.2143-0.7954-2.3433-1.9912-2.3521zm-1.9431 6.2022c0.6024 3.15 0.6658 7.6014 0.9746 30.5-3.6189 3.8543-8.6583 2.508-13.325 2.5205 4.0805 1.5503 8.4162 2.694 13.61 2.3883 1.4279 4.2304 3.7093 5.4191 2.3882 21.732-4.7678 3.2578-9.5466 2.2642-14.314 2.8063 4.6742 0.7136 9.3454 1.5405 14.02 1.537 2.4082 5.4839 2.9072 12.254 3.1012 19.214-3.2999 1.541-6.392 3.3387-9.3003 5.372-1.3464 10.022-3.4232 19.224-6.115 27.735-0.011-5.4827-0.2906-10.724 1.2393-17.584-1.532 3.641-2.2446 9.3554-2.8274 15.397-0.8238-5.2202-1.845-10.399-0.361-16.083 0.9262-2.1494 1.8728-3.9358 2.8364-5.3991-1.0293 0.8865-2.0373 1.8074-3.0168 2.7552l-1.8167-12.759c-0.7651-8.6094-1.4416-17.218-1.7897-25.826 2.7064 1.1806 5.7446 0.055 8.6355-0.048-2.923-0.3743-6.1105 0.033-8.6897-1.3594-0.014-0.401-0.026-0.8023-0.039-1.2032 1.9074 0.4968 4.5702 0.028 7.0686-0.2316-2.3656 0.031-4.7331 0.01-7.0986-0.6949-0.2244-7.6174-0.1664-15.235 0.3429-22.854l-12.284-0.7128c8.3037-10.299 16.91-18.871 26.761-27.203zm-58.244 3.6636c6.5536 0.014 13.157 0.5492 19.5 2.1115 2.8115 26.499 6.6438 52.512 10.266 78.583l-11.523 1.5702 11.854 0.791c0.01 0.066 0.018 0.1323 0.027 0.1985l-13.283 2.656 13.577-0.5114c0.01 0.064 0.016 0.1285 0.024 0.1925l-10.516 2.0032h10.792c0.024 0.1815 0.05 0.3631 0.075 0.5445l-9.4657 2.5416 9.6883-0.9023c1.0375 7.6128 2.0434 15.236 2.9898 22.884l-13.208 1.2964 13.463 0.776c0.011 0.088 0.023 0.1765 0.033 0.2647l-9.568 1.7626 9.7213-0.4963c1.1877 9.8134 2.2694 19.67 3.1764 29.597 3.6506-0.2002 5.5925 1.1898 9.2431 0.9896 0.1791 0.4973 0.3434 0.9446 0.5023 1.3626l-16.787 0.8 17.533 1.0619c0.02 0.047 0.041 0.095 0.06 0.1413l-14.79 1.3204 15.5 0.2708c0.015 0.033 0.033 0.067 0.048 0.099l-14.426 2.9958 15.472-0.773c0.391 0.8265 0.8376 1.7744 1.3777 2.9688-16.676-0.1865-31.135-0.2963-46.513-0.8333-0.8405-2.8059-0.053-1.6861-1.3045-6.1599l13.576-1.34c0.5293-24.787-3.8232-49.885-8.073-74.205-11.477-1.3926-23.253-0.7202-34.557 1.6363-7.4163 24.482-15.814 50.361-15.404 76.192 4.5243 0.1857 8.7394-0.2815 13.262-0.3075 0.2219 4.0474 0.4488 4.1499 0.6708 8.1973-18.23 0.9524-34.186-0.2291-51.315 1.5132 0.5554-4.7681 0.355-4.5992 0.5361-6.7051 4.002-0.4017 0.8228-0.3378 11.607-2.0934 12.999-50.273 33.904-99.212 45.623-149.89 5.3431-0.9888 10.571-2.6259 16.008-3.041 1.5031-0.045 3.0115-0.07 4.5238-0.066zm150.34 7.3119 16.242 3.2876-4.7102 57.101c-0.1986 5.7053 10.059 10.228 21.503 8.9303 10.407-1.1801 21.987-4.9541 22.168-10.142l1.8889-54.466 17.307 5.6608c0.7463 41.777-0.056 88.368-13.686 125.35-18.871 28.511-63.412 14.436-68.101-7.5406-0.1736-0.7817-0.337-1.5751-0.4932-2.3793l8.2806-0.6105-8.5785-0.9836c-0.036-0.2087-0.07-0.4187-0.1053-0.6286l7.1257-1.6844-7.4504-0.37c-0.014-0.1009-0.028-0.2026-0.043-0.3038l10.176-1.9791-10.374 0.4872c-0.4338-3.4759-0.6727-7.0693-0.6557-10.672l6.6954-0.4481-6.6684-1.2332v-0.1685h7.5045l-7.4534-1.3535c0.01-0.1609 0.018-0.3204 0.027-0.4813l8.2686-0.6888-8.1453-1.1008c0.082-1.007 0.1861-2.0098 0.3158-3.0079l10.894 0.385c-4.0439 22.246 7.8275 34.229 26.102 33.625 32.231-2.8463 26.303-50.888 24.054-64.6-9.9465 13.851-45.865 16.829-54.508-2.2017l7.7392 0.4422-8.3618-1.9792c-0.08-0.2228-0.1534-0.4514-0.2256-0.6797l11.111-0.7069-11.592-1.1039c-0.3492-1.583-0.538-3.2838-0.5475-5.1073l6.5301-0.5204-6.1691-1.1219-0.3519 0.7008c0-0.065 0-0.1296 0.01-0.1954 0-0.1195 0.01-0.2531 0.01-0.3731 0.2144-1.7903 0.3272-3.5897 0.3068-5.399l8.7439 1.0587-8.8402-3.3146v-0.036l12.768 1.3896-12.699-3.868v-0.051l12.696 0.5534-12.657-1.8468c0.5041-16.429 1.3951-34.82 3.9494-45.623zm-150.35 9.4327c-3.2159 0-6.4264 0.341-9.6433 0.2857h-0.072l-0.5414-0.034c-8.4198 16.341-10.373 35.259-13.74 53.044 10.48-1.173 21.439-1.7434 31.979-1.5972-2.9651-17.113-5.7276-34.308-6.6082-51.675-0.4597-0.017-0.9152-0.024-1.3746-0.024zm139.22 0.8902h0.01c0.3448 0.1872 2.4353 22.116 1.928 28.13-3.5696 2.066-7.1353 0.7906-10.705 0.385 3.8827 2.4109 7.0869 3.4873 9.9139 3.7868 0.6706 9.8549 2.4382 19.308-2.9266 31.318-3.4587 1.5786-7.3413 1.397-10.735 0.8723 2.8968 0.7428 6.1653 1.8855 9.7515 1.0587-2.5651 2.5786-8.7538 1.4544-13.538 1.2483 4.1646 1.9169 8.2145 4.2514 12.883 4.1538 0.9591 4.9412 1.0318 9.3325 1.0648 13.433l-1.0467 15.767s-0.9317 4.7031-0.084 11.237c-0.8909 2.6749-1.879 5.3047-2.7131 7.9528-7.1572 20.011-19.483 18.391-27.278 17.635 1.6584-1.6138 3.1117-3.8376 4.0817-7.5167-1.0348 2.9294-3.3313 5.2271-5.9707 7.3543-0.059 0-0.1218-0.01-0.1804-0.012 1.5703-5.2722 0.8497-8.2529 0.9896-12.095-0.6956 4.2307-2.2243 8.4534-5.5555 12.684-5.4595 5.0337-12.488 8.6142-24.776 7.3452-10.06 0.1525-23.791-7.5703-26.983-29.363 0.8493-6.9543-0.4278-15.446 5.76-23.401l5.1615-21.022c4.1877 0.6841 7.5802 0.5923 11.294 0.8031-3.1722-0.8593-6.0059-0.9644-10.1-3.9674 0.973-2.4802 4.3289-4.7876 12.684-6.7406 1.9545 3.9055 1.2801 4.0266 5.5555 6.7406 4.6402-1.0217 8.3952-3.3736 11.989-5.9646-3.0354 7.4879-5.7556 16.868-17.545 20.237 1.2616 9.1129-3.5639 15.463-7.9317 22.017l12.088-12.104c3.1939 13.046-0.8874 23.347-9.9139 35.694 7.8481-10.276 14.277-15.457 15.466-32.921 0.2372 0.077 0.4729 0.1547 0.7099 0.2316 5.2302 2.2069 16.28 8.6016 15.755 19.41 1.0474-6.5419-1.8551-11.954-7.6851-16.531 8.7934 3.6658 15.853 9.2886 15.815 22.884 0.5449-7.6117 3.2883-13.76 2.0543-22.559 1.9304 3.5808 3.553 7.5968 3.7297 12.537 0.6246-4.3656-0.1295-8.7305-1.946-13.096 6.7107 6.6917 10.324 15.322 14.01 23.903-1.9589-9.1215-4.5648-18.083-11.09-26.063 4.8184 3.385 9.8646 5.322 14.543 6.7015-5.8112-2.4141-10.9-5.4822-15.099-9.3545 7.8253 0.8711 14.867 0.8841 18.002-3.4049-2.1314 2.8508-15.314 4.6845-20.032-2.3882 1.1524-7.9511 1.1093-16.244 6.8519-21.903 2.6706 4.3266 6.2642 4.5361 9.8928 5.2186-4.3859-1.6406-7.0187-2.4664-8.6054-6.3617 0.062-0.05 0.1232-0.1011 0.1865-0.1503l2.5777-14.871c1.2089-6.764 2.9424-13.008 5.4713-18.453 2.0369 1.4364 4.4762 1.2598 6.8338 1.4137-2.0566-0.8736-4.1155-1.1934-6.1721-3.086v0.01c-0.079-1.7097-0.1063-3.3518-0.087-4.9328l-12.636-0.2858c7.536-7.2773 18.897-19.161 24.276-23.606l0.01-0.01zm-147.64 2.7809c3.6379-0.3107 1.4163 0.064 5.1985-0.1219 1.5132 13.987 1.8788 29.178 4.3193 43.316-6.3078 0.3465-15.192 0.8978-21.103 0.4512 4.0376-12.901 7.5476-30.744 11.585-43.646zm-38.397 0.041-1.5461 15.018c4.1372-0.074 8.0059-0.138 11.066-0.1474l-0.3398 1.498-8.9785 0.7037 8.5694 1.1039-0.045 0.2046c-0.087 0.2849-0.1747 0.5694-0.2616 0.8543l-10.419-0.2678-1.0227 9.9379 7.9347-0.1534-0.1715 0.6918-7.4594 0.4272 7.2128 0.5774-0.012 0.048-7.0022 0.4452 6.7255 0.6858-0.1864 0.7549-7.3843-0.1233-1.4408 13.947-4.7614 0.4 1.54-14.429-11.379-0.1895-1.4648 12.434-3.7628 0.391 1.2843-12.889-11.86-0.1986-0.6136-2.1837 12.735-0.2436 1.0799-10.855-15.319-0.4001-1.3896-2.9687c2.3667 0.372 9.0631 0.3922 17.012 0.2947l1.2363-12.392 4.5538-0.5986-1.5219 12.925c3.7026-0.059 7.511-0.1331 11.231-0.2046l1.5941-14.904zm76.688 8.3439c3.0078 0.2076 6.0156 0.4145 9.0236 0.6226-1.0547 19.031-0.7627 38.348 3.2304 57.032 0.4526 1.4689 0.7256 2.9325-0.01 4.3464-3.085 10.55-1.9895 21.915 1.122 32.31-0.1576 7.1259 0.6984 14.454 3.0229 21.229-1.9879 0.1884-4.3118 0.5825-4.4967-1.7986-3.5544-37.92-6.122-76.098-11.893-113.74zm-94.462 10.209-1.2603 10.666 11.394-0.2225 1.0888-10.152zm1.9611 2.3221h6.7556l-0.6136 6.2172-6.6894 0.2527zm16.278 0h7.4986c-0.5718 1.8741-1.1456 3.7476-1.7174 5.6217l-6.3797 0.2345zm129.58 8.049c4.0431-0.019 4.8912 1.9907 5.5946 4.0967-2.1502-0.7574-4.3016-0.9666-6.4518 0.1383 3.8868-0.4376 5.8299 0.5811 6.7315 2.3823 3.2867 3.2514 1.3898 8.2307 1.6844 12.48-4.9199-2.7736-13.271 3.277-20.613 6.7316-1.9843-11.626 7.2752-24.984 12.197-25.795 0.2987-0.02 0.5876-0.032 0.8572-0.033zm23.982 7.8685c2.9699-0.03 6.0731 1.6265 8.2535 8.007 0.1158 7.615 1.7871 15.314-4.4817 22.574-5.8893-2.8037-10.797-2.6646-14.444 1.2602 6.7706-4.5658 12.275-1.0801 12.792 1.6363 0.7309 3.8377-1.142 9.4-2.4153 11.688-1.7001-4.3873-4.197-7.0575-8.1362-6.5932-1.954 0.4481-3.6018 1.8098-5.1856 3.3688l0.8423-30.427c2.5264-6.6179 6.1355-12.371 13.602-5.8955-1.0154-2.3807-3.0544-3.324-5.4774-3.7327 2.6393-0.1971 5.8129-0.4669 8.064 0.9054-1.936-1.4171-4.0481-2.4351-6.7285-2.1777 1.0437-0.3382 2.1683-0.602 3.3147-0.6136zm-5.8232 1.5521-0.2617 0.1504c-0.033 0-0.064-0.01-0.096-0.01 0.1148-0.043 0.2378-0.094 0.358-0.1413zm-13.872 13.081c4.5353 0 4.5703 3.8913-6.5961 9.8267-2.2215-1.394-3.8698-3.1321-5.3029-4.9991 4.6313-3.3618 9.114-4.8276 11.899-4.8276zm-12.567 5.3239c1.1101 2.1223 2.784 3.804 5.2216 4.8938-0.2862 0.1478-0.5754 0.298-0.8753 0.4481-2.4195-0.8526-4.1296-2.4219-4.963-4.8606 0.2059-0.1647 0.4109-0.3242 0.6167-0.4813zm67.042 3.029c8.3718 14.115 34.334 19.988 55.946 9.198 1.2571 25.916 3.3198 45.072-25.224 47.377-16.309-1.1604-18.049-21.232-16.712-33.871l-14.696-2.6229c0.7292-4.4743 0.072-9.1925-1.9311-13.268 0.8883-2.2387 1.78-4.5119 2.6168-6.8127zm-50.222 3.8079c-0.5452 3.8423-0.1388 8.2586-2.3791 11.084l-2.9448-2.5266c2.5879-1.7691 3.7905-5.3824 5.3239-8.5573zm-7.2037 11.051c0.6999 0.5169 1.3417 1.0518 1.8528 1.6242-0.8254-0.463-1.6924-0.7818-2.6048-0.9384 0.2511-0.2209 0.5009-0.4485 0.752-0.6858zm-1.8499 1.6002c1.6206 0.225 3.1265 0.7376 4.587 1.3596 0.6588 1.5419 0.2275 3.4028-2.3551 5.8893-4.1801 1.0571-7.4819 0.5904-8.6296-3.6064 2.1323-0.8139 4.2653-1.9586 6.3977-3.6425zm16.808 0.767h0.1173c0.2359 0.01 0.4836 0.035 0.749 0.093 1.2938 0.3689 2.0993 1.0762 2.6799 1.94-1.7334-0.8828-3.6211-1.3033-5.7028-1.137 0.5778-0.4958 1.231-0.8457 2.0424-0.8903 0.038 0 0.075-0.01 0.1142-0.01zm-3.0078 1.7656c2.6124 0.016 4.9456 0.6208 7.1857 1.4257 0.4188 0.9203 0.7337 1.9131 1.1731 2.8184-3.9918 1.4447-7.7777 2.1726-10.085-2.2168 0.6098-0.6085 1.1481-1.3567 1.7266-2.0273zm-20.45 4.0305c5.3203 3.4025 4.8467 3.0358 10.657 1.546-4.1706 4.9268-8.8377 2.0641-10.657-1.546zm17.945 0.1384c5.3203 3.4024 4.8497 3.0358 10.66 1.546-4.1707 4.9268-8.8407 2.064-10.66-1.546zm14.029 9.7905h0.01-0.01v-0.01z"/>
  <path id="path4428" style="fill:#ffffff" d="m-1342.1 1188.4c-14.256-0.8808-27.341 11.79-29.171 25.026-2.3386-13.161-13.65-24.63-27.252-24.765-14.484-2.0717-27.551 9.4794-31.322 23.045-2.9012 10.664-4.3107 22.038-2.0535 32.969-2.3963-4.481-5.9556-8.8086-9.2082-12.209 10.529-10.004 8.9756-29.001-1.0539-38.755-9.1334-7.3681-21.445-2.7194-31.82-2.0071-5.0158 0.6841-10.034 1.3468-15.062 1.932 1.6768 26.541 3.3503 53.083 5.0269 79.624 8.2875-2.4801 16.575-4.9617 24.861-7.4449-1.6482-8.2024-3.483-16.602-5.0196-24.68 6.4606 3.3372 9.3528 11.001 12.343 17.29 1.3221 3.3931 2.0758 6.9762 2.5442 10.583 9.0086-1.9039 18.307-4.2657 27.145-5.8995 12.803 11.214 35.772 9.3233 44.257-6.4004 4.1223-6.6525 6.2766-14.383 7.1151-22.142 2.7857 14.213 9.3867 30.558 24.213 35.412 11.37 3.8917 25.194-1.0761 31.472-11.449-3.2291 7.5938 3.3031 7.935 9.1366 8.7922 3.9364-0.4228 11.874 4.9765 13.168 0.709 1.7217-8.8388-0.117-19.581 4.9002-26.995 3.4367 10.976 6.7281 22.04 10.235 33.012 8.8749-0.8814 17.75-1.763 26.625-2.6458-7.3278-16.088-14.651-32.178-21.976-48.268 5.3186-4.9595 11.399-11.156 16.256-15.366-4.315 12.287 1.8138 27.327 14.067 32.008-4.8424 0.5367-10.42-0.1726-14.501 3.1072-0.2903 14.415 10.666 29.339 25.607 29.708 11.494 1.3909 23.166-6.4895 25.808-17.997 4.2403-12.754-0.8509-29.383-14.166-34.127 0.9115-2.4756 10.986-2.9421 13.002-6.3809 0.4166-11.462-9.3996-21.559-20.476-22.108-7.5741-1.4703-15.663 0.2927-21.935 4.4513-8.8757-1.8168-17.751-3.6355-26.627-5.451-4.2616 5.8302-8.5257 11.658-12.788 17.488 0.4145-6.2469 0.8307-12.494 1.2441-18.74-6.1355 1.6214-12.822 0.2344-18.737 2.644-4.7932 2.9839-2.0811 10.216-3.6362 14.905-0.9301 9.158-1.8603 18.316-2.7905 27.474-6.7308-1.5255-13.462-3.0486-20.193-4.5757-0.3642 5.3258 1.5212 13.936-4.7083 16.419-6.7385 0.7262-8.0952-8.2014-9.018-13.196-0.9138-6.1756-3.5128-15.09 2.5515-19.352 5.1845-2.4075 8.1914 4.7588 9.2897 8.6259 6.8016-1.7532 13.603-3.5085 20.405-5.2605 0.7762-15.36-12.469-29.43-27.757-29.011zm-117.9 23.8c4.1989 0.9036 2.211 8.2256-2.0246 7.2508-2.4552 0.8334-7.4276 0.9476-5.7494-3.1969 0.5884-1.4415-1.4884-4.1542 1.4596-3.6821 2.1064-0.1 4.2381 0.038 6.3144-0.3718zm226.52 0.1849c2.8316-1.0583 6.3138 6.3692 2.0246 4.0723-2.4367 0.3332-6.3456-3.5994-2.0246-4.0723zm-168.34 0.099c8.172 0.5353 8.5844 10.914 7.4697 17.16-0.5685 5.7245-0.8741 15.346-8.0275 16.399-6.6789-1.3315-6.9159-10.227-6.3958-15.782 0.5461-6.2472 1.4689-14.017 6.9536-17.777zm165.82 29.626c3.8778 0.4946 11.658 4.6264 6.6729 8.886-5.1597 2.9325-7.7743-4.5457-7.6399-8.5711-0.5254-1.1129 0.4635-0.4253 0.967-0.3149z"/>
  <g id="text4472" style="fill:#000000" transform="matrix(1.1693 -.15828 .096691 .73028 -108.47 74.292)">
   <path id="path4477" d="m-1046 1388.4 13.369 0.9554-0.1844 19.056h-13.448zm-1.8898-78.597 15.074-0.2959c-0.7583 28.667-1.1486 43.175-1.3249 67.04l-8.9612 0.3837c-0.7477-21.982-3.8045-44.529-4.7881-67.128zm-43.702 57.027 10.862 0.4698c-0.086 4.6666 0.2089 8.2981 0.8857 10.894 1.1038 4.2031 2.9715 6.5816 5.6034 7.1353 1.9639 0.4128 3.5513-0.2566 4.7626-2.0095 1.2351-1.7926 1.9583-4.005 2.1696-6.6374 0.1989-2.5014-0.1258-4.8453-0.9795-7.0327-0.8538-2.1874-3.0526-4.5462-6.5963-7.0765-5.7972-4.2091-9.7859-9.0192-11.966-14.43-2.2003-5.4154-2.9977-11.896-2.3919-19.443 0.3981-4.9579 1.4312-9.4924 3.0993-13.603 1.692-4.1502 3.9644-7.1968 6.8172-9.1398 2.8767-1.9825 6.6332-2.486 11.269-1.5104 11.35 3.4773 16.056 12.807 15.782 26.941l-12.848 4.596c0-4.4159-0.4707-7.7283-1.4257-9.9369-0.9347-2.2045-2.3738-3.5111-4.3174-3.9201-1.5996-0.3339-2.8639 0.1559-3.7934 1.4772-0.9261 1.2776-1.4736 2.9694-1.6427 5.0753-0.1269 1.5349 0.1 2.988 0.6693 4.3571 0.5457 1.4087 1.9892 2.9171 4.3306 4.5251 5.7874 4.0733 9.8607 7.8304 12.22 11.272 2.3828 3.4013 3.9904 7.3536 4.823 11.857 0.8528 4.5073 1.0678 9.3935 0.6451 14.659-0.4965 6.1865-1.744 11.724-3.7423 16.613-1.9982 4.889-4.5238 8.3954-7.5765 10.519-8.2157 4.7879-18.984-0.8928-23.044-11.954-2.4082-6.9316-4.0128-13.875-3.6155-23.696zm-37.902-75.372 11.477 0.3366-4.515 36.034 18.771-31.352 17.01 9.5207-22.628 26.411 12.458 65.59-15.704-0.8948-5.589-51.85-7.579 13.446-4.1719 28.447-12.657-7.1073zm-24.702 48.492 12.304 7.3492c-0.6744 7.4264-1.8417 13.66-3.5017 18.702-1.6597 5.0412-3.7716 8.8879-6.3351 11.54-19.337 15.475-33.072-7.272-34.138-45.095-2.1857-53.113 22.316-59.86 34.194-47.111 1.9999 2.1465 9.6234 11.94 8.9236 29.269l-12.409 2.354c-0.4853-2.9413-0.9759-5.0856-1.4714-6.433-0.8196-2.2607-1.8025-3.982-2.9486-5.1637-1.146-1.1819-2.4129-1.7379-3.8004-1.668-3.1425 0.1578-5.4977 3.0209-7.0658 8.5887-1.1871 4.1321-1.6971 10.554-1.5298 19.266 0.2069 10.79 1.1041 18.16 2.6913 22.108 1.5864 3.9042 3.7468 5.7875 6.4812 5.6501 2.6528-0.1335 4.6216-1.848 5.9064-5.1441 1.3054-3.2972 2.205-8.0344 2.6992-14.212zm-82.976-28.793c2.1525-15.497 5.8201-26.837 11.003-34.02 5.1828-7.1831 11.33-9.4804 18.44-6.8916 7.2901 2.6539 12.316 8.9506 15.079 18.89 2.7687 9.8965 3.0917 22.485 0.9692 37.766-1.5409 11.094-3.6725 19.887-6.3946 26.378-2.6963 6.4557-5.9535 11.075-9.7717 13.857-3.7923 2.7462-8.1185 3.2348-12.978 1.4655-4.9397-1.7983-8.7961-4.9935-11.569-9.5856-2.7531-4.5849-4.6229-10.934-5.6094-19.048s-0.7092-17.718 0.8316-28.812zm13.74 4.7807c-1.5237 10.828-2.1544 26.81 5.2079 30.551 2.908 1.0587 5.4436-0.1724 7.6067-3.6932 2.163-3.5206 3.982-10.591 5.457-21.21 1.2411-8.9355 1.311-15.758 0.2063-20.468-1.0776-4.7459-3.0406-7.6372-5.8889-8.6741-6.1556-5.6027-11.294 14.397-12.589 23.494zm-61.743 41.457 4.1571-96.875 20.938 0.2342c4.2872 0.048 7.5549 0.9973 9.8046 2.6499 2.2497 1.6527 4.0467 4.6652 5.3908 9.0375 1.3446 4.328 1.9856 9.5887 1.9228 15.782-0.055 5.3973-0.6325 10.05-1.734 13.96-1.1008 3.8648-2.5924 6.989-4.4746 9.3729-1.1997 1.517-2.8354 2.7568-4.9074 3.7195 8.5374 9.0141 10.347 25.964 14.071 41.069l-15.902 2.1489c-0.2393-11.962-4.1827-29.134-9.3418-37.806-0.9851-1.5306-2.1104-2.3128-3.376-2.3464l-3.1995-1.0489 1.6172 36.323zm13.135-58.174 8.2232 0.8611c0.6316 0.066 1.8621-0.3932 3.6878-1.2298 0.9226-0.3738 1.6779-1.3714 2.2661-2.993 0.6085-1.6213 0.9235-3.4935 0.9451-5.6169 0.032-3.141-0.403-5.564-1.3046-7.2696-0.9016-1.7055-2.618-2.5918-5.1492-2.659l-7.6808-0.2039z"/>
  </g>
 </g>
</svg>
