<svg id="Layer_1" data-name="Layer 1" xmlns="http://www.w3.org/2000/svg" viewBox="0 0 358.82 529.58"><defs><style>.cls-1{fill:#01579b;}</style></defs><title>sareh-3-blue900-web-optimised</title><path class="cls-1" d="M377.64,153.44q0,19.24-14.91,62-18.29,51.95-42.81,82.25-30.3,37-72.15,37-33.19,0-33.19-37,0-63,46.66-121.69c-1.61-.32-2.4-2.56-2.4-6.73q0-14.9,14.43-55.31,13.46-38,16.35-38,38,0,62,19.24Q377.64,115.93,377.64,153.44ZM335.31,222.7q0-12-14.43-25-16.84-14.9-40.4-14.91-9.63,0-20.2,21.4t-10.58,39.2q0,28.39,23.57,28.38,18.76,0,40.4-17.08T335.31,222.7Z" transform="translate(-127.78 -41.87)"/><path class="cls-1" d="M453.87,133q0-2.89-28.86,103.9-27.9,101-55.8,127.46-20.69,19.73-75.52,37.52-48.1,16.36-68.78,16.35c-2.89,0-4.49-.48-4.81-1.44Q218.18,411,273.5,374q64.93-43.76,87.54-72.63,26.93-34.63,52.91-115Q435.11,121,447.14,121,453.87,121,453.87,133Z" transform="translate(-127.78 -41.87)"/><path class="cls-1" d="M230.23,465.63q16.35,0,16.35,22.13,0,25-17.32,53.39-17.8,30.3-37.52,30.3-21.17,0-38.48-21.64T130.67,493a259.29,259.29,0,0,1-2.89-39.44q0-29.33,13.47-113.51Q159.53,228,170.59,131.34q1.44-12,13.95-49.54Q198,41.87,202.34,41.87q3.36,0,3.85,18.76,1,28.39-15.39,166.91T174.92,385.3Q177.32,451.68,230.23,465.63Z" transform="translate(-127.78 -41.87)"/><path class="cls-1" d="M486.6,342q0,13.47-13,39-11.54,23.09-19.72,31.26-13,13-26.94,13,6.73,0-16.35-3.37l-26,34.63q-23.09,27.42-38,27.42-5.3,0-13-3.37t-11.06-3.37q-14.91,0-34.15,24.53-29.83,38.49-37,44.73Q224.94,571,193.2,571q-15.87,0-15.87-22.13,0-25,16.83-53.39,18.29-30.3,37.52-30.3,36.55,0,69.74-25t35.11-25q3.85,0,11.06,5.29a27.65,27.65,0,0,0,16.83,5.29q21.16,0,43.29-40.4,6.24-11.06,14.43-12,3.36,0,10.58,5.77t11.54,5.77q10.1,0,22.13-27.18t16.35-27.18Q486.6,330.47,486.6,342Z" transform="translate(-127.78 -41.87)"/></svg>